<svg width="80" height="80" viewBox="0 0 80 80" fill="none" xmlns="http://www.w3.org/2000/svg">
<circle cx="40" cy="40" r="40" fill="#C82424"/>
<path d="M48.14 38.29L34 29.82C33.6976 29.6454 33.3547 29.553 33.0055 29.552C32.6562 29.551 32.3128 29.6415 32.0095 29.8144C31.7061 29.9874 31.4532 30.2367 31.2761 30.5377C31.099 30.8387 31.0038 31.1808 31 31.53L31 48.47C31.0038 48.8192 31.099 49.1613 31.2761 49.4623C31.4532 49.7633 31.7061 50.0127 32.0095 50.1856C32.3128 50.3585 32.6562 50.449 33.0055 50.448C33.3547 50.4471 33.6976 50.3547 34 50.18L48.14 41.71C48.4339 41.5318 48.6769 41.2807 48.8455 40.9812C49.0141 40.6817 49.1027 40.3438 49.1027 40C49.1027 39.6563 49.0141 39.3184 48.8455 39.0188C48.6769 38.7193 48.4339 38.4683 48.14 38.29Z" stroke="white" stroke-width="3" stroke-linecap="round" stroke-linejoin="round"/>
</svg>
